<?xml version="1.0" encoding="utf-8"?>
<!-- Generator: Adobe Illustrator 22.1.0, SVG Export Plug-In . SVG Version: 6.00 Build 0)  -->
<svg version="1.1" id="Layer_1" xmlns="http://www.w3.org/2000/svg" xmlns:xlink="http://www.w3.org/1999/xlink" x="0px" y="0px"
	 viewBox="0 0 621 108" style="enable-background:new 0 0 621 108;" xml:space="preserve">
<style type="text/css">
	.st0{fill:#0083AF;}
	.st1{fill:#FFFFFF;}
	.st2{fill:#1D4484;}
	.st3{fill:#04A4D6;}
</style>
<image style="display:none;overflow:visible;enable-background:new    ;" width="613" height="129" xlink:href="5A10E2F8.jpeg"  transform="matrix(0.9922 0 0 0.9922 3.5787 -9.7651)">
</image>
<g>
	<path class="st0" d="M143.9,12.8h-0.6c-1.7-0.1-2.5-1.1-2.5-3c0-1.2,0.4-2.2,1.1-3.1c0.7-0.8,1.6-1.3,2.6-1.3h0.6h6.7
		c1.9,0,3.6,0.2,5.1,0.7c1.4,0.5,2.7,1.2,3.8,2.1c1.6,1.4,2.9,3.3,3.8,5.7c0.9,2.4,1.3,5.1,1.3,8.2c0,2.8-0.3,5.5-0.8,8.3
		s-1.3,5.4-2.3,8c-1,2.5-2.2,4.9-3.6,7s-2.9,3.9-4.5,5.4c-0.9,0.8-1.9,1.6-2.8,2.2c-1,0.6-2,1.1-3,1.5c-1.1,0.4-2.2,0.6-3.5,0.8
		c-1.2,0.2-2.6,0.3-4.1,0.3c-0.1,0-0.2,0-0.5,0s-0.6,0-0.9,0l-0.3,0.9c-0.5,1.4-0.9,2.6-1.2,3.6s-0.7,1.8-1,2.4
		c-0.3,0.7-0.6,1.3-0.9,1.8s-0.6,1.1-1,1.6c-1.3,1.8-2.8,3.2-4.4,4.2c-1.7,1-3.4,1.5-5.2,1.5c-1.3,0-2.6-0.3-3.7-0.8
		c-1.1-0.6-2.1-1.3-2.9-2.3s-1.5-2.2-1.9-3.6c-0.5-1.4-0.7-2.9-0.7-4.5c0-1.2,0.1-2.3,0.4-3.4c0.2-1.1,0.6-2.1,1-3s1-1.7,1.6-2.4
		s1.3-1.3,2-1.7c1.6-0.9,3.6-1.4,6-1.4h8.1L146.5,13h-2.6V12.8z M127.1,55.6c-0.6,0-1,0-1.3,0.1s-0.6,0.2-0.9,0.3
		c-1.5,0.7-2.2,2-2.2,3.9c0,1.2,0.3,2.1,1,2.9c0.6,0.8,1.5,1.2,2.4,1.2c1.4,0,2.8-0.7,4-2.2c1.3-1.5,2.3-3.5,3.1-6.2H127.1z
		 M142.6,48.3c2.5,0,4.8-0.7,6.7-2s3.7-3.5,5.4-6.4c1.5-2.8,2.8-5.7,3.6-8.8c0.9-3.1,1.3-6,1.3-8.7c0-3-0.6-5.3-1.8-7
		s-3-2.5-5.2-2.6l-10.8,35.5C141.8,48.3,142.6,48.3,142.6,48.3z"/>
	<path class="st0" d="M171.3,33.1c-0.4,1.3-0.8,2.1-1.2,2.7c-0.4,0.5-1,0.8-1.6,0.8s-1.2-0.3-1.6-0.8c-0.5-0.5-0.7-1.2-0.7-2
		c0-0.3,0-0.6,0.1-0.9c0.1-0.3,0.2-0.8,0.4-1.5l2.6-8.5c0.3-1.1,0.7-1.9,1.1-2.4c0.4-0.5,0.9-0.7,1.5-0.7c1.2,0,1.9,0.7,2.1,2.1
		l0.2,0.9c0.1,0.5,0.2,0.8,0.4,0.9s0.6,0.2,1.3,0.2h5.4h0.6c1.6,0,2.4,0.9,2.4,2.8c0,0.7-0.2,1.3-0.5,2s-0.7,1.2-1.2,1.4
		c-0.2,0.2-0.5,0.3-0.8,0.3s-0.8,0.1-1.4,0.1l-0.3,0.3c-0.3,0.5-0.6,0.8-0.9,1.2c-0.2,0.3-0.4,0.6-0.6,0.9c-0.2,0.3-0.4,0.5-0.5,0.8
		s-0.3,0.6-0.5,0.9c-0.4,0.8-0.7,1.5-0.9,2s-0.2,0.9-0.2,1.4c0,1.7,0.7,2.6,2.1,2.6h2.9h0.6c1.6,0.1,2.4,1,2.4,2.8
		c0,1.1-0.3,2-1,2.8c-0.6,0.8-1.4,1.2-2.3,1.2h-0.6h-4.5c-0.2,0-0.4,0-0.7-0.1s-0.7-0.2-1-0.3c-1-0.4-1.9-1.2-2.5-2.5s-1-2.8-1-4.6
		c0-1.4,0.3-2.8,0.8-4.2s1.4-3,2.7-4.9H172L171.3,33.1z"/>
	<path class="st0" d="M235,39.9h3.9h0.6c1.7,0.1,2.6,1.1,2.6,3c0,1.2-0.4,2.2-1.1,3.1c-0.7,0.8-1.6,1.3-2.6,1.3h-0.6h-4.7
		c-0.6,0-1.1,0-1.4-0.1s-0.6-0.2-1-0.4c-0.8-0.4-1.4-1-1.8-1.9c-0.4-0.8-0.7-1.7-0.7-2.7s0.2-2.1,0.5-3.2l0.4-1.2l1.9-6.2h-7.3
		l-4.5,14.6c-0.5,1.8-1.2,3.6-2,5.2c-0.8,1.6-1.6,3.1-2.5,4.4c-1.2,1.8-2.6,3.1-4.3,4.1c-1.6,1-3.4,1.4-5.1,1.4
		c-1.6,0-3.1-0.4-4.4-1.1c-1.4-0.7-2.5-1.7-3.5-3s-1.8-2.8-2.3-4.5c-0.6-1.7-0.8-3.6-0.8-5.7c0-3.1,0.5-6,1.6-8.7s2.6-5,4.4-7.1
		c1.9-2,4.1-3.6,6.7-4.8c2.6-1.2,5.3-1.9,8.3-1.9l3.2-0.1c0.1,0,0.3,0,0.4,0c0.2,0,0.4,0,0.6-0.1L224,9.7l0.3-0.9
		c0.8-2.5,2-3.7,3.7-3.7c0.8,0,1.4,0.3,1.9,0.9s0.7,1.3,0.7,2.2c0,0.3,0,0.7-0.1,1.1c-0.1,0.4-0.1,0.8-0.2,1.2l-0.3,0.9l-3.9,12.9
		h7.3l4.5-14.5l0.3-0.9c0.8-2.5,2-3.8,3.7-3.8c0.7,0,1.3,0.3,1.8,0.9s0.8,1.3,0.8,2.2c0,0.5,0,0.9-0.1,1.3c-0.1,0.4-0.3,1.1-0.5,1.9
		L240,24.2h1.7h0.6c1.7,0.1,2.6,1.1,2.6,3c0,1.2-0.4,2.2-1.1,3.1c-0.7,0.8-1.6,1.3-2.6,1.3h-0.6h-3L235,39.9z M216.2,31.6
		c-1.6,0-3.1,0.2-4.6,0.6c-1.5,0.4-2.8,0.9-3.9,1.6c-1,0.6-1.9,1.4-2.8,2.3c-0.8,0.9-1.6,1.9-2.2,3c-0.6,1.1-1.1,2.2-1.4,3.4
		c-0.3,1.2-0.5,2.4-0.5,3.5c0,1,0.1,2,0.4,2.9c0.3,0.9,0.6,1.7,1.1,2.3c0.5,0.7,1,1.2,1.6,1.6c0.6,0.4,1.3,0.6,2,0.6c1,0,2-0.3,3-1
		s1.8-1.6,2.4-2.8c0.2-0.4,0.5-0.9,0.7-1.5c0.3-0.6,0.5-1.1,0.8-1.8c0.3-0.6,0.5-1.2,0.7-1.8s0.4-1.2,0.6-1.7l3.5-11.4h-1.4V31.6z"
		/>
	<path class="st0" d="M250.5,47c-0.6-0.2-1.2-0.5-1.8-0.9c-1-0.9-1.7-2.1-2.3-3.5c-0.5-1.5-0.8-3.1-0.8-4.8c0-1.9,0.3-3.7,0.8-5.4
		c0.6-1.7,1.3-3.2,2.3-4.5s2.1-2.3,3.3-3.1c1.3-0.8,2.6-1.2,4-1.2c1.1,0,2.2,0.3,3.1,0.8c1,0.5,1.8,1.2,2.5,2.1s1.2,1.9,1.6,3.1
		s0.6,2.5,0.6,4c0,1.2-0.1,2.4-0.4,3.6c-0.2,1.2-0.6,2.4-1,3.4c-0.4,1.1-0.9,2.1-1.5,3s-1.2,1.7-1.9,2.3c-0.7,0.6-1.4,1-2.2,1.2
		c-0.8,0.2-1.9,0.3-3.4,0.3C252.2,47.2,251.2,47.2,250.5,47z M257.7,31c-0.5-0.7-1.1-1.1-1.9-1.1c-0.6,0-1.2,0.2-1.7,0.6
		s-1,0.9-1.5,1.6c-0.4,0.7-0.8,1.4-1,2.3c-0.3,0.9-0.4,1.8-0.4,2.7c0,2.3,1,3.4,2.9,3.4c0.6,0,1,0,1.3-0.1s0.6-0.3,0.9-0.6
		c0.6-0.6,1.1-1.5,1.5-2.6c0.4-1.2,0.6-2.3,0.6-3.5C258.5,32.6,258.2,31.7,257.7,31z"/>
	<path class="st0" d="M279.3,40.5h0.5c1.6,0.1,2.4,1,2.4,2.8c0,1.1-0.3,2-1,2.8c-0.6,0.8-1.4,1.2-2.3,1.2h-0.6h-10.7
		c-0.9,0-1.7-0.3-2.3-1c-0.6-0.6-0.8-1.5-0.8-2.6c0-0.6,0.1-1.1,0.4-1.7c0.3-0.5,0.6-1.1,1.2-1.8l7.5-9.6l-2.6,0.1
		c-0.2,0-0.4,0-0.6,0.1c-1.6,0-2.4-0.9-2.4-2.8c0-1.1,0.3-2.1,1-2.8c0.7-0.8,1.5-1.2,2.4-1.2h0.6h7.1c2.1,0,3.2,1.2,3.2,3.6
		c0,1.3-0.5,2.5-1.5,3.8l-7.2,9.3h5.7V40.5z"/>
	<path class="st0" d="M291.6,40.5h6.8h0.6c1.6,0.1,2.4,1,2.4,2.8c0,1.1-0.3,2-1,2.8s-1.4,1.2-2.4,1.2h-0.6H291
		c-1.2,0-2.1-0.1-2.8-0.3c-0.7-0.2-1.3-0.6-2-1.2c-1.8-1.8-2.7-4.4-2.7-7.9c0-2,0.3-3.8,0.8-5.5s1.3-3.3,2.2-4.6
		c0.9-1.3,2-2.3,3.2-3.1c1.2-0.8,2.5-1.1,3.9-1.1c2,0,3.6,0.7,4.8,2.1c1.2,1.4,1.8,3.2,1.8,5.5c0,1.5-0.3,2.8-0.8,3.9
		c-0.5,1.1-1.3,2-2.2,2.5c-0.3,0.2-0.5,0.3-0.7,0.4c-0.2,0.1-0.5,0.2-0.8,0.2c-0.3,0.1-0.6,0.1-0.9,0.1s-0.8,0-1.2,0H289
		C289,39.8,289.9,40.5,291.6,40.5z M292.6,32.7c0.8,0,1.5-0.1,1.8-0.3c0.4-0.2,0.6-0.6,0.6-1c0-0.5-0.1-0.9-0.4-1.2
		c-0.3-0.3-0.7-0.5-1.1-0.5c-1.4,0-2.6,1-3.4,3.1L292.6,32.7L292.6,32.7z"/>
	<path class="st0" d="M318.1,23.9h0.6c1.6,0,2.4,0.9,2.4,2.7c0,1.1-0.3,2-1,2.8s-1.4,1.2-2.4,1.2h-0.6h-4.2l-10.3,33.7l-0.2,0.9
		c-0.8,2.3-1.9,3.4-3.4,3.4c-0.7,0-1.2-0.3-1.7-0.8s-0.7-1.2-0.7-2.1c0-0.4,0-0.8,0.1-1.2c0.1-0.4,0.2-0.9,0.5-1.8l9.8-32.1h-1.6
		H305c-1.6-0.1-2.4-1-2.4-2.8c0-1.1,0.3-2,1-2.8s1.4-1.2,2.4-1.2h0.5h2.6l2.9-9.6c0.5-1.6,1-2.9,1.6-4.1c0.6-1.1,1.2-2,1.9-2.8
		c0.7-0.7,1.5-1.2,2.4-1.5s1.9-0.5,3.1-0.5h2.6h0.6c1.6,0.1,2.4,1,2.4,2.7c0,1.1-0.3,2.1-1,2.8c-0.6,0.8-1.4,1.1-2.4,1.1h-0.6H322
		c-1.3,0-2.3,0.3-3.1,1c-0.7,0.7-1.3,1.9-1.9,3.6l-2.2,7.1h3.3V23.9z"/>
	<path class="st0" d="M337.9,40.5h0.6c1.6,0.1,2.4,1,2.4,2.8c0,1.1-0.3,2-1,2.8s-1.4,1.2-2.4,1.2h-0.6h-3c-1.3,0-2.2-0.7-2.6-2.1
		l-0.4,0.5c-0.5,0.6-1,1-1.4,1.2s-0.9,0.3-1.5,0.3h-2.8c-1.6,0-3-0.8-4-2.4c-1-1.6-1.5-3.7-1.5-6.3c0-1.9,0.3-3.8,0.8-5.6
		c0.6-1.8,1.3-3.4,2.2-4.8c0.9-1.4,2-2.5,3.2-3.3s2.4-1.3,3.7-1.3c1.9,0,3.3,0.9,4.3,2.7c0.4-0.8,0.8-1.4,1.3-1.8
		c0.5-0.3,1-0.5,1.7-0.5s1.2,0.3,1.7,0.8s0.7,1.2,0.7,2c0,0.5,0,0.9-0.1,1.2c-0.1,0.4-0.2,0.9-0.5,1.8l-3.3,10.8
		C335.4,40.5,337.9,40.5,337.9,40.5z M331.7,33.4l0.1-0.5c0.1-0.3,0.2-0.7,0.2-1.1c0-0.6-0.2-1.1-0.6-1.5s-0.9-0.7-1.5-0.7
		s-1.1,0.2-1.7,0.7s-1.1,1.1-1.6,1.9s-0.9,1.7-1.2,2.6c-0.3,1-0.4,1.9-0.4,2.8c0,1,0.2,1.7,0.5,2.3c0.3,0.5,0.8,0.8,1.4,0.8h0.9
		c0.3,0,0.7-0.2,1.2-0.6c0.5-0.4,0.7-0.8,0.9-1.1L331.7,33.4z"/>
	<path class="st0" d="M392.7,45.4c0.7,2,1.5,3,2.4,2.9l0.9-0.1h9.6h0.6c1.7,0.1,2.6,1.1,2.6,3c0,1.2-0.4,2.2-1.1,3.1
		c-0.7,0.8-1.6,1.3-2.6,1.3h-0.6H394c-1.4,0-2.6-0.5-3.7-1.4s-1.8-2.3-2.4-4l-6.6-21.3L378.2,39c-0.4,1.3-0.8,2.5-1.2,3.8
		c-0.4,1.3-0.7,2.3-1,3.1c-1.7,5.3-3.7,9.3-5.9,11.8s-5,3.8-8.1,3.8c-1.7,0-3.2-0.3-4.5-1s-2.5-1.7-3.5-2.9c-1-1.3-1.7-2.8-2.3-4.6
		c-0.5-1.8-0.8-3.7-0.8-5.9c0-3.1,0.5-6,1.5-8.8s2.3-5.2,4-7.3s3.7-3.7,5.9-4.9c2.2-1.2,4.6-1.8,7.1-1.8c1.4,0,2.4,0.3,3.2,1
		c0.8,0.7,1.1,1.6,1.1,2.8c0,1.4-0.4,2.4-1.1,3s-2,1-3.9,1.1c-1.6,0.1-3.1,0.6-4.4,1.4c-1.4,0.8-2.6,1.8-3.6,3.1s-1.8,2.7-2.4,4.4
		s-0.9,3.4-0.9,5.3c0,2.2,0.5,3.9,1.4,5.2s2.1,1.9,3.7,1.9c1.7,0,3.3-1,4.7-3.1c0.4-0.6,0.9-1.3,1.3-2.2s0.9-2.1,1.4-3.5
		c0.3-0.8,0.6-1.7,0.9-2.7c0.3-0.9,0.6-1.9,0.9-2.8l7.9-26.1h-2.4h-0.6c-1.7-0.1-2.5-1.1-2.5-3c0-1.2,0.4-2.2,1.1-3.1
		c0.7-0.8,1.6-1.3,2.6-1.3h0.6h7.6c0.6,0,1.1,0,1.5,0s0.7,0,1,0.1c0.3,0,0.5,0.1,0.7,0.1s0.4,0.1,0.7,0.2c1.8,0.5,3.2,1.7,4.3,3.5
		c1,1.9,1.6,4.1,1.6,6.7c0,2-0.3,4-1,6s-1.6,3.6-2.7,5c-0.6,0.8-1.2,1.3-1.9,1.8c-0.6,0.4-1.4,0.8-2.3,1.1L392.7,45.4z M383.4,24.2
		c1-0.1,1.8-0.2,2.3-0.4c0.5-0.2,1-0.5,1.5-0.9c0.8-0.7,1.4-1.6,1.9-2.6s0.6-2.1,0.6-3.3c0-1.3-0.3-2.4-0.8-3.1
		c-0.5-0.7-1.2-1.1-2.2-1.1h-0.6l-3.5,11.4H383.4z"/>
	<path class="st0" d="M416,40.5h0.6c1.6,0.1,2.4,1,2.4,2.8c0,1.1-0.3,2-1,2.8c-0.6,0.8-1.4,1.2-2.3,1.2h-0.6h-4.4
		c-0.5,0-0.9-0.2-1.4-0.6c-0.4-0.4-0.7-0.9-0.9-1.4c-0.8,1.3-1.9,2-3.1,2h-3.8c-0.3,0-0.7-0.1-1.2-0.3s-0.9-0.4-1.2-0.7
		c-0.5-0.5-1-1.2-1.4-2.1c-0.4-0.9-0.6-1.9-0.6-2.8c0-0.5,0.1-1.1,0.2-1.6s0.3-1.1,0.4-1.8l3.2-10.2c0.5-1.5,1-2.6,1.5-3.3
		c0.5-0.6,1.2-1,2-1c0.7,0,1.2,0.3,1.7,0.8s0.7,1.2,0.7,2.1c0,0.6-0.1,1.3-0.4,2.1l-0.2,0.8l-2.4,7.8l-0.2,0.9
		c-0.2,0.6-0.2,1-0.2,1.2c0,0.4,0.1,0.8,0.4,1c0.3,0.3,0.6,0.4,0.9,0.4c0.8,0,1.4-0.1,1.6-0.3c0.5-0.3,0.9-0.6,1.3-1.1
		s0.7-1,0.8-1.5l2.9-9.6c0.5-1.6,1-2.7,1.5-3.3s1.2-0.9,2.1-0.9c0.7,0,1.2,0.3,1.7,0.8s0.7,1.2,0.7,2.1c0,0.4,0,0.8-0.1,1.2
		c-0.1,0.4-0.2,0.9-0.5,1.8l-3.3,10.8h2.6V40.5z"/>
	<path class="st0" d="M441.2,40.5h0.6c1.6,0.1,2.4,1,2.4,2.8c0,1.1-0.3,2-1,2.8s-1.4,1.2-2.4,1.2h-0.6h-4.7c-0.9,0-1.7-0.4-2.4-1.1
		s-1-1.7-1-2.8c0-0.5,0-0.9,0.1-1.3c0.1-0.4,0.3-1.1,0.5-1.9l2-6.6c0.2-0.7,0.3-1.3,0.3-1.7c0-0.5-0.2-0.9-0.5-1.3
		c-0.3-0.3-0.7-0.5-1.2-0.5c-0.9,0-1.8,0.7-2.6,2c-0.5,0.9-0.9,1.8-1.2,2.8l-2.7,8.8l-0.3,0.8c-0.7,2.3-1.8,3.4-3.4,3.4
		c-0.7,0-1.2-0.3-1.7-0.8s-0.7-1.2-0.7-2.1c0-0.7,0.1-1.4,0.4-2.1l0.2-0.8l4.7-15.2c0.6-2,1.6-3,3.1-3c1.2,0,2,0.7,2.5,2.1
		c0.9-1,1.7-1.6,2.4-2c0.7-0.4,1.4-0.5,2.2-0.5c1.5,0,2.7,0.5,3.6,1.6s1.4,2.5,1.4,4.2c0,0.5,0,0.9-0.1,1.5
		c-0.1,0.5-0.2,1.1-0.4,1.6l-2.5,8.2h3V40.5z"/>
	<path class="st0" d="M463.4,40.5h0.5c1.6,0.1,2.4,1,2.4,2.8c0,1.1-0.3,2-1,2.8c-0.6,0.8-1.4,1.2-2.3,1.2h-0.6h-3.1
		c-1.2,0-2-0.6-2.6-1.9c-1,1.3-1.9,1.9-2.7,1.9h-3.7c-0.8,0-1.5-0.2-2.1-0.7c-0.6-0.4-1.2-1-1.7-1.8s-0.9-1.6-1.1-2.7
		c-0.3-1-0.4-2.1-0.4-3.3c0-2,0.3-3.9,0.8-5.8c0.5-1.8,1.3-3.5,2.2-4.9c0.9-1.4,2-2.6,3.1-3.4c1.2-0.9,2.4-1.3,3.7-1.3
		c1.8,0,3.3,0.9,4.4,2.6l5.1-16.7l0.2-0.8c0.8-2.3,1.9-3.5,3.4-3.5c0.7,0,1.2,0.3,1.7,0.8c0.5,0.6,0.7,1.3,0.7,2.1
		c0,0.7-0.1,1.4-0.4,2.1l-0.2,0.8l-9,29.6L463.4,40.5L463.4,40.5z M457.1,33.4l0.1-0.5c0.1-0.3,0.2-0.7,0.2-1.1
		c0-0.6-0.2-1.1-0.6-1.5s-0.9-0.7-1.5-0.7s-1.2,0.3-1.8,0.8c-0.6,0.5-1.1,1.1-1.6,1.9s-0.8,1.7-1.1,2.7c-0.3,1-0.4,2-0.4,3
		c0,1.8,0.6,2.8,1.9,2.8h1c0.3,0,0.7-0.2,1.1-0.5c0.4-0.4,0.7-0.7,0.8-1.2L457.1,33.4z"/>
	<path class="st0" d="M475.4,40.5h6.8h0.6c1.6,0.1,2.4,1,2.4,2.8c0,1.1-0.3,2-1,2.8s-1.4,1.2-2.4,1.2h-0.6h-6.5
		c-1.2,0-2.1-0.1-2.8-0.3c-0.7-0.2-1.3-0.6-2-1.2c-1.8-1.8-2.7-4.4-2.7-7.9c0-2,0.3-3.8,0.8-5.5s1.3-3.3,2.2-4.6
		c0.9-1.3,2-2.3,3.2-3.1c1.2-0.8,2.5-1.1,3.9-1.1c2,0,3.6,0.7,4.8,2.1c1.2,1.4,1.8,3.2,1.8,5.5c0,1.5-0.3,2.8-0.8,3.9
		c-0.5,1.1-1.3,2-2.2,2.5c-0.3,0.2-0.5,0.3-0.7,0.4c-0.2,0.1-0.5,0.2-0.8,0.2c-0.3,0.1-0.6,0.1-0.9,0.1s-0.8,0-1.2,0h-4.6
		C472.8,39.8,473.6,40.5,475.4,40.5z M476.4,32.7c0.8,0,1.5-0.1,1.8-0.3c0.4-0.2,0.6-0.6,0.6-1c0-0.5-0.1-0.9-0.4-1.2
		c-0.3-0.3-0.7-0.5-1.1-0.5c-1.4,0-2.6,1-3.4,3.1L476.4,32.7L476.4,32.7z"/>
	<path class="st0" d="M491.1,33.1c-0.4,1.3-0.8,2.1-1.2,2.7c-0.4,0.5-1,0.8-1.6,0.8s-1.2-0.3-1.6-0.8c-0.5-0.5-0.7-1.2-0.7-2
		c0-0.3,0-0.6,0.1-0.9c0.1-0.3,0.2-0.8,0.4-1.5l2.6-8.5c0.3-1.1,0.7-1.9,1.1-2.4s0.9-0.7,1.5-0.7c1.2,0,1.9,0.7,2.1,2.1l0.2,0.9
		c0.1,0.5,0.2,0.8,0.4,0.9c0.2,0.1,0.6,0.2,1.3,0.2h5.4h0.6c1.6,0,2.4,0.9,2.4,2.8c0,0.7-0.2,1.3-0.5,2s-0.7,1.2-1.2,1.4
		c-0.2,0.2-0.5,0.3-0.8,0.3s-0.8,0.1-1.4,0.1l-0.3,0.3c-0.3,0.5-0.6,0.8-0.9,1.2c-0.2,0.3-0.4,0.6-0.6,0.9c-0.2,0.3-0.4,0.5-0.5,0.8
		s-0.3,0.6-0.5,0.9c-0.4,0.8-0.7,1.5-0.9,2c-0.2,0.5-0.2,0.9-0.2,1.4c0,1.7,0.7,2.6,2.1,2.6h2.9h0.6c1.6,0.1,2.4,1,2.4,2.8
		c0,1.1-0.3,2-1,2.8c-0.6,0.8-1.4,1.2-2.3,1.2h-0.6h-4.5c-0.2,0-0.4,0-0.7-0.1c-0.3-0.1-0.7-0.2-1-0.3c-1-0.4-1.9-1.2-2.5-2.5
		s-1-2.8-1-4.6c0-1.4,0.3-2.8,0.8-4.2s1.4-3,2.7-4.9h-2.4L491.1,33.1z"/>
	<path class="st0" d="M523.6,40.5h0.6c1.6,0.1,2.4,1,2.4,2.8c0,1.1-0.3,2-1,2.8s-1.4,1.2-2.4,1.2h-0.6h-3c-1.3,0-2.2-0.7-2.6-2.1
		l-0.4,0.5c-0.5,0.6-1,1-1.4,1.2s-0.9,0.3-1.5,0.3h-2.8c-1.6,0-3-0.8-4-2.4c-1-1.6-1.5-3.7-1.5-6.3c0-1.9,0.3-3.8,0.8-5.6
		c0.6-1.8,1.3-3.4,2.2-4.8c0.9-1.4,2-2.5,3.2-3.3s2.4-1.3,3.7-1.3c1.9,0,3.3,0.9,4.3,2.7c0.4-0.8,0.8-1.4,1.3-1.8
		c0.5-0.3,1-0.5,1.7-0.5s1.2,0.3,1.7,0.8s0.7,1.2,0.7,2c0,0.5,0,0.9-0.1,1.2c-0.1,0.4-0.2,0.9-0.5,1.8L521,40.5H523.6z M517.4,33.4
		l0.1-0.5c0.1-0.3,0.2-0.7,0.2-1.1c0-0.6-0.2-1.1-0.6-1.5c-0.4-0.4-0.9-0.7-1.5-0.7s-1.1,0.2-1.7,0.7c-0.6,0.5-1.1,1.1-1.6,1.9
		s-0.9,1.7-1.2,2.6c-0.3,1-0.4,1.9-0.4,2.8c0,1,0.2,1.7,0.5,2.3c0.3,0.5,0.8,0.8,1.4,0.8h0.9c0.3,0,0.7-0.2,1.2-0.6
		c0.5-0.4,0.7-0.8,0.9-1.1L517.4,33.4z"/>
	<path class="st0" d="M550.5,26.5c0.7-1.2,1.3-2,1.7-2.4c0.5-0.4,1-0.6,1.6-0.6c0.7,0,1.3,0.3,1.8,0.9s0.7,1.3,0.7,2.3
		c0,0.9-0.3,1.9-1,3l-0.5,0.8l-8.6,14.4c-0.5,0.8-1.1,1.5-1.7,2.1c-0.6,0.5-1.1,0.8-1.6,0.8c-1.1,0-2-0.5-2.7-1.5s-1.1-2.3-1.1-3.8
		c0-0.3,0-0.6,0.1-1.1l0.8-5.6l-4.7,9c-1,1.9-2.1,2.9-3.2,2.9c-1.1,0-2-0.6-2.7-1.8s-0.9-2.7-0.8-4.5l0.6-12.8v-0.8
		c0.1-1.3,0.4-2.3,1-3.1c0.6-0.8,1.3-1.2,2.2-1.2c1.4,0,2.2,1.1,2.2,3.2c0,0.1,0,0.2,0,0.5c0,0.2,0,0.4-0.1,0.7l-0.6,8.5l5.1-9.7
		c0.5-1,1.1-1.8,1.8-2.3s1.3-0.8,2-0.8c0.9,0,1.6,0.3,2.1,1s0.8,1.6,0.8,2.8c0,0.4,0,0.7,0,0.9l-0.6,7.6L550.5,26.5z"/>
	<path class="st0" d="M574,40.5h0.6c1.6,0.1,2.4,1,2.4,2.8c0,1.1-0.3,2-1,2.8s-1.4,1.2-2.4,1.2H573h-3c-1.3,0-2.2-0.7-2.6-2.1
		l-0.4,0.5c-0.5,0.6-1,1-1.4,1.2s-0.9,0.3-1.5,0.3h-2.8c-1.6,0-3-0.8-4-2.4c-1-1.6-1.5-3.7-1.5-6.3c0-1.9,0.3-3.8,0.8-5.6
		c0.6-1.8,1.3-3.4,2.2-4.8s2-2.5,3.2-3.3s2.4-1.3,3.7-1.3c1.9,0,3.3,0.9,4.3,2.7c0.4-0.8,0.8-1.4,1.3-1.8c0.5-0.3,1-0.5,1.7-0.5
		s1.2,0.3,1.7,0.8s0.7,1.2,0.7,2c0,0.5,0,0.9-0.1,1.2c-0.1,0.4-0.2,0.9-0.5,1.8l-3.3,10.8C571.5,40.5,574,40.5,574,40.5z
		 M567.9,33.4l0.1-0.5c0.1-0.3,0.2-0.7,0.2-1.1c0-0.6-0.2-1.1-0.6-1.5c-0.4-0.4-0.9-0.7-1.5-0.7s-1.1,0.2-1.7,0.7
		c-0.6,0.5-1.1,1.1-1.6,1.9s-0.9,1.7-1.2,2.6c-0.3,1-0.4,1.9-0.4,2.8c0,1,0.2,1.7,0.5,2.3c0.3,0.5,0.8,0.8,1.4,0.8h0.9
		c0.3,0,0.7-0.2,1.2-0.6c0.5-0.4,0.7-0.8,0.9-1.1L567.9,33.4z"/>
	<path class="st0" d="M586.6,40.5h0.6c1.6,0.1,2.4,1,2.4,2.8c0,1.1-0.3,2-1,2.8s-1.4,1.2-2.4,1.2h-0.6h-4.1c-1.1,0-2-0.3-2.7-1
		s-1-1.6-1-2.7c0-0.4,0.1-0.9,0.2-1.5c0.1-0.6,0.3-1.2,0.5-1.9l9.3-30.3L588,9c0.7-2.3,1.8-3.4,3.4-3.4c0.6,0,1.2,0.3,1.6,0.8
		c0.5,0.6,0.7,1.2,0.7,2c0,0.6-0.1,1.3-0.3,2.1l-0.3,0.8l-8.9,29.2H586.6z"/>
	<path class="st0" d="M608.9,40.5h0.6c1.6,0.1,2.4,1,2.4,2.8c0,1.1-0.3,2-1,2.8s-1.4,1.2-2.4,1.2h-0.6h-3c-1.3,0-2.2-0.7-2.6-2.1
		l-0.4,0.5c-0.5,0.6-1,1-1.4,1.2s-0.9,0.3-1.5,0.3h-2.8c-1.6,0-3-0.8-4-2.4c-1-1.6-1.5-3.7-1.5-6.3c0-1.9,0.3-3.8,0.8-5.6
		c0.6-1.8,1.3-3.4,2.2-4.8s2-2.5,3.2-3.3s2.4-1.3,3.7-1.3c1.9,0,3.3,0.9,4.3,2.7c0.4-0.8,0.8-1.4,1.3-1.8c0.5-0.3,1-0.5,1.7-0.5
		s1.2,0.3,1.7,0.8s0.7,1.2,0.7,2c0,0.5,0,0.9-0.1,1.2c-0.1,0.4-0.2,0.9-0.5,1.8l-3.3,10.8C606.4,40.5,608.9,40.5,608.9,40.5z
		 M602.7,33.4l0.1-0.5c0.1-0.3,0.2-0.7,0.2-1.1c0-0.6-0.2-1.1-0.6-1.5c-0.4-0.4-0.9-0.7-1.5-0.7s-1.1,0.2-1.7,0.7
		c-0.6,0.5-1.1,1.1-1.6,1.9s-0.9,1.7-1.2,2.6c-0.3,1-0.4,1.9-0.4,2.8c0,1,0.2,1.7,0.5,2.3c0.3,0.5,0.8,0.8,1.4,0.8h0.9
		c0.3,0,0.7-0.2,1.2-0.6c0.5-0.4,0.7-0.8,0.9-1.1L602.7,33.4z"/>
</g>
<g>
	<path d="M124.2,89.3h6.2v9.5h-2.1l-0.3-2.2c-0.8,1.1-1.9,2.7-4.7,2.7c-3.6,0-6.9-3.1-6.9-9.3c0-4.8,2.3-9.4,7.3-9.4
		c4.6,0,6.4,3.5,6.6,6h-3.1c0-0.7-1.1-2.9-3.3-2.9c-2.2,0-4.3,1.8-4.3,6.4c0,4.8,2.2,6.1,4.3,6.1c0.7,0,3-0.3,3.6-3.9H124v-3H124.2z
		"/>
	<path d="M142.1,96.2c0,1.6,0.3,1.9,0.6,2v0.5h-3.1c-0.2-0.6-0.2-0.8-0.3-1.6c-0.7,0.8-1.6,1.9-3.6,1.9c-1.7,0-3.4-1.1-3.4-3.8
		c0-2.6,1.4-3.9,3.2-4.2l2.6-0.5c0.5-0.1,1-0.3,1-1c0-1.5-1.2-1.5-1.9-1.5c-1.5,0-1.7,1.1-1.8,1.8h-2.8c0.3-4,2.7-4.6,5-4.6
		c1.6,0,4.4,0.6,4.4,3.8v7.2H142.1z M139.2,92.4c-0.3,0.3-0.8,0.5-2,0.7c-1.1,0.2-2,0.5-2,2c0,1.2,0.8,1.6,1.4,1.6
		c1.3,0,2.6-1,2.6-2.6V92.4z"/>
	<path d="M150.9,89.7c-0.1-0.8-0.4-1.7-2-1.7s-1.8,0.7-1.8,1.3c0,2.1,6.9,0.6,6.9,5.4c0,3.8-3.1,4.5-4.8,4.5c-2.5,0-5.2-1-5.3-4.5h3
		c0,1.1,0.6,1.9,2.4,1.9c1.5,0,1.9-0.9,1.9-1.4c0-2.2-6.9-0.5-6.9-5.4c0-1.9,1-4.4,4.5-4.4c2.2,0,4.7,0.6,5,4.3
		C153.8,89.7,150.9,89.7,150.9,89.7z"/>
	<path d="M159.5,85.7h1.8v2.5h-1.8v7.1c0,0.8,0,1.1,1.2,1.1c0.2,0,0.4,0,0.6,0V99c-0.5,0-0.9,0-1.4,0h-0.4c-2.5,0-3-1.1-3-2.8v-8
		H155v-2.5h1.5v-3.5h2.9L159.5,85.7L159.5,85.7z"/>
	<path d="M163.2,85.7h2.8V88l0,0c0.6-1.3,1.3-2.6,3-2.6c0.2,0,0.4,0,0.6,0v3.5c-0.2,0-0.6,0-0.8,0c-2.3,0-2.7,1.7-2.7,3.1v6.8h-2.9
		L163.2,85.7L163.2,85.7z"/>
	<path d="M175.9,99.1c-3,0-5.7-2.2-5.7-6.9s2.7-6.9,5.7-6.9s5.7,2.2,5.7,6.9S178.8,99.1,175.9,99.1z M175.9,88.3
		c-2.2,0-2.7,2.3-2.7,4s0.4,4,2.7,4s2.7-2.3,2.7-4S178.1,88.3,175.9,88.3z"/>
	<path d="M193.1,95c-0.8,3.2-3,4.2-4.9,4.2c-3.1,0-5.5-1.8-5.5-7.2c0-1.6,0.5-6.6,5.3-6.6c2.2,0,5.2,1.2,5.2,7.2v0.6h-7.6
		c0.1,1,0.2,3.2,2.6,3.2c0.8,0,1.6-0.5,1.9-1.4C190.1,95,193.1,95,193.1,95z M190.2,90.9c-0.2-2.1-1.3-2.8-2.2-2.8
		c-1.4,0-2.1,1-2.3,2.8H190.2z"/>
	<path d="M205.1,98.8h-2.9v-8c0-1,0-2.6-1.9-2.6c-1.3,0-2.3,1-2.3,3v7.5h-2.9v-13h2.8v1.9l0,0c0.4-0.8,1.2-2.3,3.3-2.3
		c2.2,0,3.8,1.5,3.8,4.4L205.1,98.8L205.1,98.8z"/>
	<path d="M211.1,85.7h1.8v2.5h-1.8v7.1c0,0.8,0,1.1,1.2,1.1c0.2,0,0.4,0,0.6,0V99c-0.5,0-0.9,0-1.4,0h-0.4c-2.5,0-3-1.1-3-2.8v-8
		h-1.5v-2.5h1.5v-3.5h2.9L211.1,85.7L211.1,85.7z"/>
	<path d="M224.3,95c-0.8,3.2-3,4.2-4.9,4.2c-3.1,0-5.5-1.8-5.5-7.2c0-1.6,0.5-6.6,5.3-6.6c2.2,0,5.2,1.2,5.2,7.2v0.6h-7.6
		c0.1,1,0.2,3.2,2.6,3.2c0.8,0,1.6-0.5,1.9-1.4C221.3,95,224.3,95,224.3,95z M221.4,90.9c-0.2-2.1-1.3-2.8-2.2-2.8
		c-1.4,0-2.1,1-2.3,2.8H221.4z"/>
	<path d="M226.3,85.7h2.8V88l0,0c0.6-1.3,1.3-2.6,3-2.6c0.2,0,0.4,0,0.6,0v3.5c-0.2,0-0.6,0-0.8,0c-2.3,0-2.7,1.7-2.7,3.1v6.8h-2.9
		L226.3,85.7L226.3,85.7z"/>
	<path d="M239,99.1c-3,0-5.7-2.2-5.7-6.9s2.7-6.9,5.7-6.9s5.7,2.2,5.7,6.9S242,99.1,239,99.1z M239,88.3c-2.2,0-2.7,2.3-2.7,4
		s0.4,4,2.7,4s2.7-2.3,2.7-4S241.3,88.3,239,88.3z"/>
	<path d="M249.7,98.8h-2.9V81.1h2.9V98.8z"/>
	<path d="M257.5,99.1c-3,0-5.7-2.2-5.7-6.9s2.7-6.9,5.7-6.9s5.7,2.2,5.7,6.9S260.5,99.1,257.5,99.1z M257.5,88.3
		c-2.2,0-2.7,2.3-2.7,4s0.4,4,2.7,4c2.3,0,2.7-2.3,2.7-4S259.8,88.3,257.5,88.3z"/>
	<path d="M275.4,85.7v12.4c0,2.3-0.1,6-5.6,6c-2.3,0-4.7-1.2-4.8-3.9h3.2c0.1,0.7,0.4,1.3,2,1.3s2.3-0.9,2.3-3V97l0,0
		c-0.5,1-1.2,2-3,2c-2.7,0-4.8-2.2-4.8-6.8c0-4.5,2.2-6.8,4.6-6.8c2.1,0,2.9,1.4,3.2,2.3l0,0v-1.9L275.4,85.7L275.4,85.7z M270,96
		c2,0,2.5-2,2.5-3.8c0-2.1-0.9-3.8-2.5-3.8c-1.1,0-2.3,0.9-2.3,4C267.7,94,268.3,96,270,96z"/>
	<path d="M280.9,84.1H278v-3.2h2.9V84.1z M280.9,85.7v13.1H278V85.7H280.9z"/>
	<path d="M290,89.7c-0.1-0.8-0.4-1.7-2-1.7s-1.8,0.7-1.8,1.3c0,2.1,6.9,0.6,6.9,5.4c0,3.8-3.1,4.5-4.8,4.5c-2.5,0-5.2-1-5.3-4.5h3
		c0,1.1,0.6,1.9,2.4,1.9c1.5,0,1.9-0.9,1.9-1.4c0-2.2-6.9-0.5-6.9-5.4c0-1.9,1-4.4,4.5-4.4c2.2,0,4.7,0.6,5,4.3
		C292.9,89.7,290,89.7,290,89.7z"/>
	<path d="M298.5,85.7h1.8v2.5h-1.8v7.1c0,0.8,0,1.1,1.2,1.1c0.2,0,0.4,0,0.6,0V99c-0.5,0-0.9,0-1.4,0h-0.4c-2.5,0-3-1.1-3-2.8v-8
		H294v-2.5h1.5v-3.5h2.9L298.5,85.7L298.5,85.7z"/>
	<path d="M305.3,98.3c0,3-1.3,4.1-3.1,4.6l0,0v-1.3c0.8-0.3,1.6-0.8,1.7-2.8h-1.7v-3.6h3.1V98.3z"/>
	<path d="M316.2,90.9v7.9H313V81.1h3.1v6.7h5.8v-6.7h3.1v17.7h-3v-7.9H316.2z"/>
	<path d="M337.4,95c-0.8,3.2-3,4.2-4.9,4.2c-3.1,0-5.5-1.8-5.5-7.2c0-1.6,0.5-6.6,5.3-6.6c2.2,0,5.2,1.2,5.2,7.2v0.6H330
		c0.1,1,0.2,3.2,2.6,3.2c0.8,0,1.6-0.5,1.9-1.4C334.5,95,337.4,95,337.4,95z M334.6,90.9c-0.2-2.1-1.3-2.8-2.2-2.8
		c-1.4,0-2.1,1-2.3,2.8H334.6z"/>
	<path d="M342.2,87.6L342.2,87.6c0.6-1,1.4-2.2,3.3-2.2c2.4,0,4.6,2.2,4.6,6.8c0,3.6-1.4,7-4.7,7c-2,0-2.8-1.3-3.1-2l0,0v6.8h-2.9
		V85.7h2.8L342.2,87.6L342.2,87.6z M344.8,96.3c1.9,0,2.4-2.4,2.4-4c0-2.1-0.6-4-2.5-4c-2,0-2.5,2.1-2.5,4.2
		C342.2,94.5,342.9,96.3,344.8,96.3z"/>
	<path d="M361.2,96.2c0,1.6,0.3,1.9,0.6,2v0.5h-3.1c-0.2-0.6-0.2-0.8-0.3-1.6c-0.7,0.8-1.6,1.9-3.6,1.9c-1.7,0-3.4-1.1-3.4-3.8
		c0-2.6,1.4-3.9,3.2-4.2l2.6-0.5c0.5-0.1,1-0.3,1-1c0-1.5-1.2-1.5-1.9-1.5c-1.5,0-1.7,1.1-1.8,1.8h-2.8c0.3-4,2.7-4.6,5-4.6
		c1.6,0,4.4,0.6,4.4,3.8L361.2,96.2L361.2,96.2z M358.3,92.4c-0.3,0.3-0.8,0.5-2,0.7c-1.1,0.2-2,0.5-2,2c0,1.2,0.8,1.6,1.4,1.6
		c1.3,0,2.6-1,2.6-2.6V92.4z"/>
	<path d="M367,85.7h1.8v2.5H367v7.1c0,0.8,0,1.1,1.2,1.1c0.2,0,0.4,0,0.6,0V99c-0.5,0-0.9,0-1.4,0H367c-2.5,0-3-1.1-3-2.8v-8h-1.5
		v-2.5h1.5v-3.5h2.9L367,85.7L367,85.7z"/>
	<path d="M375.7,99.1c-3,0-5.7-2.2-5.7-6.9s2.7-6.9,5.7-6.9s5.7,2.2,5.7,6.9S378.7,99.1,375.7,99.1z M375.7,88.3
		c-2.2,0-2.7,2.3-2.7,4s0.4,4,2.7,4s2.7-2.3,2.7-4S378,88.3,375.7,88.3z"/>
	<path d="M386.4,98.8h-2.9V81.1h2.9V98.8z"/>
	<path d="M394.2,99.1c-3,0-5.7-2.2-5.7-6.9s2.7-6.9,5.7-6.9s5.7,2.2,5.7,6.9S397.2,99.1,394.2,99.1z M394.2,88.3
		c-2.2,0-2.7,2.3-2.7,4s0.4,4,2.7,4s2.7-2.3,2.7-4S396.5,88.3,394.2,88.3z"/>
	<path d="M412.1,85.7v12.4c0,2.3-0.1,6-5.6,6c-2.3,0-4.7-1.2-4.8-3.9h3.2c0.1,0.7,0.4,1.3,2,1.3s2.3-0.9,2.3-3V97l0,0
		c-0.5,1-1.2,2-3,2c-2.7,0-4.8-2.2-4.8-6.8c0-4.5,2.2-6.8,4.6-6.8c2.1,0,2.9,1.4,3.2,2.3l0,0v-1.9L412.1,85.7L412.1,85.7z M406.7,96
		c2,0,2.5-2,2.5-3.8c0-2.1-0.9-3.8-2.5-3.8c-1.1,0-2.3,0.9-2.3,4C404.4,94,405,96,406.7,96z"/>
	<path d="M417.6,84.1h-2.9v-3.2h2.9V84.1z M417.6,85.7v13.1h-2.9V85.7H417.6z"/>
	<path d="M426.7,89.7c-0.1-0.8-0.4-1.7-2-1.7s-1.8,0.7-1.8,1.3c0,2.1,6.9,0.6,6.9,5.4c0,3.8-3.1,4.5-4.8,4.5c-2.5,0-5.2-1-5.3-4.5h3
		c0,1.1,0.6,1.9,2.4,1.9c1.5,0,1.9-0.9,1.9-1.4c0-2.2-6.9-0.5-6.9-5.4c0-1.9,1-4.4,4.5-4.4c2.2,0,4.7,0.6,5,4.3
		C429.6,89.7,426.7,89.7,426.7,89.7z"/>
	<path d="M435.2,85.7h1.8v2.5h-1.8v7.1c0,0.8,0,1.1,1.2,1.1c0.2,0,0.4,0,0.6,0V99c-0.5,0-0.9,0-1.4,0h-0.4c-2.5,0-3-1.1-3-2.8v-8
		h-1.5v-2.5h1.5v-3.5h2.9L435.2,85.7L435.2,85.7z"/>
	<path d="M453.6,96.2c0,1.6,0.3,1.9,0.6,2v0.5h-3.1c-0.2-0.6-0.2-0.8-0.3-1.6c-0.7,0.8-1.6,1.9-3.6,1.9c-1.7,0-3.4-1.1-3.4-3.8
		c0-2.6,1.4-3.9,3.2-4.2l2.6-0.5c0.5-0.1,1-0.3,1-1c0-1.5-1.2-1.5-1.9-1.5c-1.5,0-1.7,1.1-1.8,1.8h-2.8c0.3-4,2.7-4.6,4.9-4.6
		c1.6,0,4.4,0.6,4.4,3.8v7.2H453.6z M450.8,92.4c-0.3,0.3-0.8,0.5-2,0.7c-1.1,0.2-2,0.5-2,2c0,1.2,0.8,1.6,1.4,1.6
		c1.3,0,2.6-1,2.6-2.6V92.4z"/>
	<path d="M466.2,98.8h-2.9v-8c0-1,0-2.6-1.9-2.6c-1.3,0-2.3,1-2.3,3v7.5h-2.9v-13h2.8v1.9l0,0c0.4-0.8,1.2-2.3,3.3-2.3
		c2.2,0,3.8,1.5,3.8,4.4v9.1H466.2z"/>
	<path d="M479.1,98.8h-2.8v-1.7l0,0c-0.7,1.5-2,2-3.2,2c-3.3,0-4.7-3.5-4.7-7c0-4.5,2.2-6.8,4.6-6.8c1.9,0,2.7,1.2,3.2,2l0,0V81h2.9
		V98.8z M473.7,96.3c1.9,0,2.6-1.8,2.6-3.8c0-2.1-0.5-4.2-2.5-4.2c-1.9,0-2.5,1.9-2.5,4C471.3,93.9,471.8,96.3,473.7,96.3z"/>
	<path d="M498.7,84.2h-7.9V88h7.3v3.1h-7.3v4.6h8.3v3.1h-11.3V81.1h11v3.1H498.7z"/>
	<path d="M511.3,98.8h-2.9v-8c0-1,0-2.6-1.9-2.6c-1.3,0-2.3,1-2.3,3v7.5h-2.9v-13h2.8v1.9l0,0c0.4-0.8,1.2-2.3,3.3-2.3
		c2.2,0,3.8,1.5,3.8,4.4v9.1H511.3z"/>
	<path d="M524.1,98.8h-2.8v-1.7l0,0c-0.7,1.5-2,2-3.2,2c-3.3,0-4.7-3.5-4.7-7c0-4.5,2.2-6.8,4.6-6.8c1.9,0,2.7,1.2,3.2,2l0,0V81h2.9
		V98.8z M518.8,96.3c1.9,0,2.6-1.8,2.6-3.8c0-2.1-0.5-4.2-2.5-4.2c-1.9,0-2.5,1.9-2.5,4C516.4,93.9,516.9,96.3,518.8,96.3z"/>
	<path d="M531.7,99.1c-3,0-5.7-2.2-5.7-6.9s2.7-6.9,5.7-6.9s5.7,2.2,5.7,6.9S534.7,99.1,531.7,99.1z M531.7,88.3
		c-2.2,0-2.7,2.3-2.7,4s0.4,4,2.7,4s2.7-2.3,2.7-4S534,88.3,531.7,88.3z"/>
	<path d="M545.7,89.7c-0.1-0.8-0.4-1.7-2-1.7s-1.8,0.7-1.8,1.3c0,2.1,6.9,0.6,6.9,5.4c0,3.8-3.1,4.5-4.8,4.5c-2.5,0-5.2-1-5.3-4.5h3
		c0,1.1,0.6,1.9,2.4,1.9c1.5,0,1.9-0.9,1.9-1.4c0-2.2-6.9-0.5-6.9-5.4c0-1.9,1-4.4,4.5-4.4c2.2,0,4.7,0.6,5,4.3
		C548.6,89.7,545.7,89.7,545.7,89.7z"/>
	<path d="M560.5,94c-0.1,1.4-1,5.1-5.1,5.1c-4.2,0-5.1-3.8-5.1-6.5c0-4.2,1.6-7.3,5.3-7.3c1.7,0,4.6,0.9,4.9,5h-3
		c-0.1-0.9-0.6-2.2-1.9-2.1c-1.8,0-2.3,2.2-2.3,3.8c0,1.4,0,4.3,2.2,4.3c1.5,0,2-1.7,2-2.3H560.5z"/>
	<path d="M567.6,99.1c-3,0-5.7-2.2-5.7-6.9s2.7-6.9,5.7-6.9s5.7,2.2,5.7,6.9S570.6,99.1,567.6,99.1z M567.6,88.3
		c-2.2,0-2.7,2.3-2.7,4s0.4,4,2.7,4s2.7-2.3,2.7-4S569.8,88.3,567.6,88.3z"/>
	<path d="M578,87.6L578,87.6c0.6-1,1.4-2.2,3.3-2.2c2.4,0,4.6,2.2,4.6,6.8c0,3.6-1.4,7-4.7,7c-2,0-2.8-1.3-3.1-2l0,0v6.8h-2.9V85.7
		h2.8L578,87.6L578,87.6z M580.6,96.3c1.9,0,2.4-2.4,2.4-4c0-2.1-0.6-4-2.5-4c-2,0-2.5,2.1-2.5,4.2C578,94.5,578.7,96.3,580.6,96.3z
		"/>
	<path d="M591,84.1h-2.9v-3.2h2.9V84.1z M591,85.7v13.1h-2.9V85.7H591z"/>
	<path d="M600,89.7c-0.1-0.8-0.4-1.7-2-1.7s-1.8,0.7-1.8,1.3c0,2.1,6.9,0.6,6.9,5.4c0,3.8-3.1,4.5-4.8,4.5c-2.5,0-5.2-1-5.3-4.5h3
		c0,1.1,0.6,1.9,2.4,1.9c1.5,0,1.9-0.9,1.9-1.4c0-2.2-6.9-0.5-6.9-5.4c0-1.9,1-4.4,4.5-4.4c2.2,0,4.7,0.6,5,4.3
		C602.9,89.7,600,89.7,600,89.7z"/>
	<path d="M608.6,85.7h1.8v2.5h-1.8v7.1c0,0.8,0,1.1,1.2,1.1c0.2,0,0.4,0,0.6,0V99c-0.5,0-0.9,0-1.4,0h-0.4c-2.5,0-3-1.1-3-2.8v-8
		h-1.5v-2.5h1.5v-3.5h2.9v3.5H608.6z"/>
</g>
<g>
	<ellipse class="st1" cx="56.2" cy="51.2" rx="50.2" ry="50.3"/>
	<path class="st2" d="M10.3,65.5C3,47.5,10.4,24.2,27.1,12C37.6,4.3,49.7,0.5,62.4,2.6c26.1,4.4,42.3,25.6,42,49.6
		c-0.4,22.5-17,43.6-42.5,47.6c-5.1,0.8-10.2,1.2-15.3,0c-6.7-1.5-11.5-7-11.3-13.4c0.1-6.2,4.6-10.8,11.5-12.2
		c3.5-0.7,6.9-1.7,10.1-3.4c6.4-3.4,8.1-9.6,4-15.7c-5-7.5-7.5-15.4-5.9-24.5c1.1-6,4.2-11.1,7.8-15.9c1.7-2.1,3.1-1.9,7.4,0.9
		c-6.6,8.5-11,17.5-6.3,28.7c3.3-1.6,6.1-3.6,9.5-4.4c6.3-1.5,11.2,0.9,13.9,6.8c7.7,17-3.8,36.9-22.3,38.5
		c-5.4,0.5-10.8,0.4-16-1.3c-2.9-0.9-5.9-0.8-7.4,2.5c-1.1,2.5,0.8,5.6,4.5,6.8c11,3.7,21.4,1.4,31.1-4.2
		c18.4-10.5,26.5-30.4,20.6-50.7C92.9,21.7,79.1,10.3,62,7.6C37.6,4,14.1,23.1,12.6,47C12.2,53.2,10.2,59.2,10.3,65.5z"/>
	<path class="st3" d="M57.8,64.6c-0.4,0.2-0.8,0.5-1.2,0.7c-5.9,3.2-11.9,5.7-18.5,7c-3.1,0.6-5,3.3-7.4,5.1
		c-3.2,2.4-6.2,5.2-10.3,6.2c-2.5,0.6-4-0.3-4.5-2.6c-3.4-15.1-4.2-30,6.2-43.1c4.3-5.4,10.2-8.5,17.2-8.4c4,0,8,0.6,12.2,1
		c-0.2,3.7-0.1,7.2,0.5,10.6"/>
	<path class="st3" d="M52,41.1c1,6,3.3,11.5,6.9,16.6c2.4,3.5,2.1,5-1,6.9"/>
	<path class="st3" d="M65.5,40.1c-0.8-2.9-0.6-5.3-0.5-8.3c8.4,0.2,16.7-2.3,24.9,0.6c6.5,2.3,6.7,3.7,2,8.4
		c-0.8,0.8-1.5,1.9-2.4,3.1C82.7,34.5,74.5,35.8,65.5,40.1z"/>
	<g>
		<path class="st1" d="M88.1,63.5h-6.2h-0.6c-0.6,0-1.2-0.5-1.6-1.4l-3.1-7.4c1.5-0.4,2.8-1.3,3.7-2.5c0.9-1.2,1.4-2.6,1.4-4.2
			c0-1.7-0.6-3.1-1.7-4.1c-0.6-0.5-1.1-0.8-1.7-0.9c-0.6-0.1-1.5-0.2-2.8-0.2h-4.9c-0.9,0-1.5,0.2-2,0.6c-0.5,0.4-0.7,0.9-0.7,1.6
			c0,0.9,0.7,1.4,2,1.4h1.5l-5.1,12.7c-1.1,2.6-2,4.4-2.9,5.4c-0.3,0.4-0.7,0.7-1.1,0.9l-3.7,4.4c0.4,0.1,0.9,0.1,1.3,0.1
			c2.9,0,5.2-1.3,7.1-3.8c0.5-0.7,1-1.5,1.4-2.3s1.1-2.4,2-4.8l2-4.9l4.3,10.3c0.7,1.8,2,2.7,3.9,2.7h6.8c0.3,0,0.6,0,0.8-0.1
			l0.9-3.3C88.9,63.5,88.5,63.5,88.1,63.5z M73.7,51.8h-0.4l2.3-5.6h0.3c1.3,0,1.9,0.7,1.9,2.1c0,1.2-0.5,2.1-1.6,2.8
			C75.7,51.5,74.9,51.7,73.7,51.8z"/>
		<path class="st1" d="M57.7,64.6L57.7,64.6C57.8,64.6,57.8,64.6,57.7,64.6c-0.4-0.6-0.6-1.4-0.6-2.4c0-1.1,0.3-2.1,0.9-3
			c0.3-0.5,0.6-0.9,1-1.3l-2.1-3.3c-0.3,0.3-0.6,0.5-0.9,0.8c-2,2.1-3,4.5-3,7.3c0,1.5,0.3,2.8,1,3.9l0.4-0.2l0.5-0.2l0.5-0.2
			l0.4-0.2l0.4-0.2l0.4-0.2l0.3-0.2l0.3-0.2l0.4-0.2L57.7,64.6z"/>
		<path class="st1" d="M66.8,55.1c0.5-0.4,0.8-0.9,0.8-1.5s-0.2-1-0.7-1.4s-1.1-0.5-1.9-0.5c-1.6,0-3.2,0.3-4.9,1
			c-0.2,0.1-0.4,0.2-0.6,0.3l2.1,3.3c1-0.4,2.2-0.6,3.5-0.8C66,55.4,66.5,55.3,66.8,55.1z"/>
		<path class="st1" d="M53.3,52.6h-1.9l2.1-5.3L52,41.1c-0.8,0.3-1.5,1-2,2.1l-0.2,0.6l-3.6,8.8h-5.9l3.2-7.9
			c0.3-0.9,0.5-1.5,0.5-1.9c0-0.5-0.2-1-0.6-1.3C43,41.1,42.5,41,41.9,41c-1.3,0-2.3,0.7-2.9,2.2l-0.2,0.5l-3.6,8.9h-0.8l-2.6,0.1
			c-1.9,0-3.9,0.3-5.9,0.9c-2,0.6-3.8,1.5-5.3,2.6c-1.8,1.3-3.2,2.8-4.2,4.6s-1.5,3.7-1.5,5.6c0,2.5,0.8,4.6,2.5,6.3
			c1.7,1.6,3.8,2.5,6.4,2.5c4.9,0,8.6-3.1,11.1-9.2l3.6-8.9h5.9l-1.5,3.8l-0.3,0.7c-0.3,0.7-0.4,1.3-0.4,1.9c0,1,0.4,1.7,1.1,2.3
			c0.7,0.6,1.6,0.8,2.8,0.8h3.8c1.1,0,1.9-0.2,2.5-0.7s0.9-1.1,0.9-1.9c0-1.2-0.7-1.8-2.1-1.8h-3.7l2-5.1H52c1.1,0,1.9-0.2,2.5-0.7
			s0.9-1.1,0.9-1.9C55.3,53.2,54.7,52.6,53.3,52.6z M30.6,63.9c-1.7,4.2-3.9,6.4-6.5,6.4c-1.2,0-2.2-0.4-2.9-1.3
			c-0.8-0.8-1.2-1.9-1.2-3.2c0-1.1,0.3-2.2,1-3.3s1.5-2.1,2.7-3c2.2-1.7,5.1-2.5,8.7-2.5h1L30.6,63.9z"/>
		<polygon class="st1" points="89.1,63.6 89,64.5 88.9,64.8 88.8,65.2 88.7,65.5 88.6,65.9 88.4,66.4 88.2,67 		"/>
		<polygon class="st1" points="88.2,67 88.3,66.8 88.3,66.7 88.4,66.6 88.4,66.5 88.4,66.4 88.4,66.4 88.5,66.3 88.5,66.2 
			88.5,66.2 88.5,66.1 88.5,66.1 88.6,66 88.6,65.9 88.6,65.8 88.6,65.7 88.7,65.6 88.8,65.2 88.9,64.9 88.9,64.8 89,64.5 89,64.4 
			89.2,63.6 89.1,63.6 88.2,66.4 		"/>
		<polygon class="st1" points="89.2,63.6 89.1,63.7 89,64.1 89,64.2 89,64.3 88.9,64.2 89.1,63.6 		"/>
	</g>
</g>
</svg>
